<svg width="306" height="306" viewBox="0 0 306 306" fill="none" xmlns="http://www.w3.org/2000/svg">
<g clip-path="url(#clip0_148_168)">
<path d="M153 0C237.5 0 306 68.5004 306 153C306 207.33 277.681 255.043 235 282.19L85 290.095C34.6223 265.059 0 213.073 0 153C0 68.5004 68.5004 0 153 0Z" fill="url(#paint0_radial_148_168)"/>
<mask id="mask0_148_168" style="mask-type:alpha" maskUnits="userSpaceOnUse" x="0" y="0" width="306" height="306">
<circle cx="153" cy="153" r="153" fill="url(#paint1_radial_148_168)"/>
</mask>
<g mask="url(#mask0_148_168)">
<path d="M45 150L85 120H109.5V180H85L45 150Z" fill="black"/>
<path d="M45 150L85 120H109.5V180H85L45 150Z" fill="url(#paint2_linear_148_168)"/>
<g filter="url(#filter0_d_148_168)">
<path d="M185 68C212.614 68 235 90.3858 235 118V289.469L85 212.479V118C85 90.3858 107.386 68 135 68H185Z" fill="white"/>
<path d="M185 68C212.614 68 235 90.3858 235 118V289.469L85 212.479V118C85 90.3858 107.386 68 135 68H185Z" fill="url(#paint3_linear_148_168)"/>
</g>
<g filter="url(#filter1_d_148_168)">
<path d="M235 289.469V338H85V212.479L235 289.469Z" fill="url(#paint4_linear_148_168)"/>
</g>
<circle cx="133.459" cy="131.637" r="19.3182" fill="url(#paint5_radial_148_168)"/>
</g>
</g>
<defs>
<filter id="filter0_d_148_168" x="73.1" y="68" width="173.8" height="245.369" filterUnits="userSpaceOnUse" color-interpolation-filters="sRGB">
<feFlood flood-opacity="0" result="BackgroundImageFix"/>
<feColorMatrix in="SourceAlpha" type="matrix" values="0 0 0 0 0 0 0 0 0 0 0 0 0 0 0 0 0 0 127 0" result="hardAlpha"/>
<feOffset dy="12"/>
<feGaussianBlur stdDeviation="5.95"/>
<feComposite in2="hardAlpha" operator="out"/>
<feColorMatrix type="matrix" values="0 0 0 0 0 0 0 0 0 0 0 0 0 0 0 0 0 0 0.25 0"/>
<feBlend mode="normal" in2="BackgroundImageFix" result="effect1_dropShadow_148_168"/>
<feBlend mode="normal" in="SourceGraphic" in2="effect1_dropShadow_148_168" result="shape"/>
</filter>
<filter id="filter1_d_148_168" x="73.1" y="212.479" width="173.8" height="149.421" filterUnits="userSpaceOnUse" color-interpolation-filters="sRGB">
<feFlood flood-opacity="0" result="BackgroundImageFix"/>
<feColorMatrix in="SourceAlpha" type="matrix" values="0 0 0 0 0 0 0 0 0 0 0 0 0 0 0 0 0 0 127 0" result="hardAlpha"/>
<feOffset dy="12"/>
<feGaussianBlur stdDeviation="5.95"/>
<feComposite in2="hardAlpha" operator="out"/>
<feColorMatrix type="matrix" values="0 0 0 0 0 0 0 0 0 0 0 0 0 0 0 0 0 0 0.25 0"/>
<feBlend mode="normal" in2="BackgroundImageFix" result="effect1_dropShadow_148_168"/>
<feBlend mode="normal" in="SourceGraphic" in2="effect1_dropShadow_148_168" result="shape"/>
</filter>
<radialGradient id="paint0_radial_148_168" cx="0" cy="0" r="1" gradientUnits="userSpaceOnUse" gradientTransform="translate(153) rotate(90) scale(290.095 491.656)">
<stop offset="0.433268" stop-color="#FF8400"/>
<stop offset="1" stop-color="#D64B00"/>
</radialGradient>
<radialGradient id="paint1_radial_148_168" cx="0" cy="0" r="1" gradientUnits="userSpaceOnUse" gradientTransform="translate(153) rotate(90) scale(306 491.656)">
<stop offset="0.433268" stop-color="#FF8400"/>
<stop offset="1" stop-color="#D64B00"/>
</radialGradient>
<linearGradient id="paint2_linear_148_168" x1="81.9212" y1="162.792" x2="38.5504" y2="150.096" gradientUnits="userSpaceOnUse">
<stop/>
<stop offset="1" stop-color="#4A4A4A"/>
</linearGradient>
<linearGradient id="paint3_linear_148_168" x1="105.227" y1="105.553" x2="261.519" y2="318.133" gradientUnits="userSpaceOnUse">
<stop offset="0.296855" stop-color="white"/>
<stop offset="1" stop-color="#D2D2D2"/>
</linearGradient>
<linearGradient id="paint4_linear_148_168" x1="223.455" y1="302" x2="85" y2="229.347" gradientUnits="userSpaceOnUse">
<stop/>
<stop offset="1" stop-color="#4A4A4A"/>
</linearGradient>
<radialGradient id="paint5_radial_148_168" cx="0" cy="0" r="1" gradientUnits="userSpaceOnUse" gradientTransform="translate(114.227 129.318) rotate(12.2788) scale(86.9899)">
<stop stop-color="#666666"/>
<stop offset="0.389802"/>
</radialGradient>
<clipPath id="clip0_148_168">
<rect width="306" height="306" fill="white"/>
</clipPath>
</defs>
</svg>
